<svg width="1744" height="1719" viewBox="0 0 1744 1719" fill="none" xmlns="http://www.w3.org/2000/svg">
<path d="M1084.91 1072.72C985.844 1369.63 721.203 1461.32 581.271 1092.54C562.028 1041.83 612.342 1022.95 647.529 1000.63C671.631 985.348 684.292 972.093 682.824 958.426C675.896 893.951 645.903 714.572 645.903 714.572L642.852 708.793C642.852 708.793 643.583 707.173 640.712 710.038C637.72 713.025 630.819 744.214 603.622 744.214C579.238 744.214 554.483 733.314 542.636 657.886C538.349 630.589 540.782 559.025 570.989 546.102C583.472 540.763 594.988 538.854 606.222 545.263C617.456 551.671 593.26 523.357 718.209 419.232C799.427 351.549 927.717 341.629 979.484 353.057C1031.25 364.484 1083.02 389.824 1105.91 443.483C1133.69 508.593 1080.03 557.759 1091.82 706.042C1089.67 759.617 1092.74 877.198 945.314 916.607C917.313 924.093 926 965 968 975C1035 996 1084.96 1047.27 1084.96 1072.86" fill="white"/>
<path fill-rule="evenodd" clip-rule="evenodd" d="M1084.94 611.2L1085.1 609.806C1089.24 573.399 1093.26 538.118 1112.24 506.429C1118.7 510.85 1117.95 516.452 1115.93 521.643C1096.01 572.845 1097.84 626.04 1099.67 679.206C1099.83 683.863 1099.99 688.519 1100.14 693.174C1102.22 759.601 1085.65 819.988 1041.35 870.736C1025.98 888.348 1005.63 900.464 984.854 911.045C963.515 921.912 959.03 931.132 965.687 954.599C965.93 955.455 966.229 956.315 966.529 957.178C967.892 961.1 969.273 965.073 965.487 968.95C960.965 973.58 956.026 972.259 950.683 970.829C950.48 970.775 950.277 970.721 950.074 970.667C899.733 957.241 854.697 933.154 813.056 902.393C807.139 898.022 802.272 892.06 797.561 886.29L797.561 886.289L797.256 885.916C794.776 882.879 794.338 878.141 797.807 875.462C801.054 872.955 803.609 875.011 806.452 877.298C806.815 877.59 807.182 877.886 807.556 878.176C830.027 895.614 854.773 907.063 883.768 909.943C897.176 911.275 910.448 910.784 923.708 910.293H923.708H923.709C931.17 910.017 938.626 909.741 946.101 909.79C956.34 909.857 964.752 905.107 972.761 900.584C973.712 900.047 974.658 899.513 975.601 898.99C1003.45 883.545 1029.88 866.229 1047.84 838.331C1063.92 813.331 1073.67 786.1 1079.4 757.443C1086.65 721.27 1085.99 684.7 1085.32 647.621C1085.11 635.536 1084.89 623.397 1084.94 611.2ZM581.684 535.824C603.577 534.064 615.771 547.033 626.037 562.053C638.664 580.526 645.39 601.465 648.37 623.572C648.87 627.28 649.389 631.223 647.152 634.856C642.737 635.45 642.319 631.946 642.252 629.317C641.696 608.644 632.526 590.61 623.308 573.156C616.73 560.704 607.059 548.64 591.943 545.577C574.71 542.084 558.858 557.566 551.067 577.842C536.636 615.398 539.029 652.36 552.455 688.759C558.33 704.687 565.648 720.913 580.303 732.026C595.142 743.28 613.008 741.295 623.903 726.349C624.526 725.494 625.184 724.649 625.845 723.801L625.845 723.801L625.845 723.801C627.841 721.238 629.853 718.656 630.928 715.749C633.035 710.049 636.256 704.629 642.155 705.423C648.978 706.342 650.271 713.729 650.909 719.499C656.707 771.928 664.758 824.024 672.81 876.126L672.81 876.126C674.808 889.053 676.806 901.98 678.769 914.913C681.369 932.023 684.381 956.598 682.361 967.05C682.219 967.792 682.136 968.523 682.058 969.222C681.749 971.958 681.496 974.21 677.906 974.75C673.034 975.484 670.831 972.66 670.233 968.28C667.913 951.274 667.273 944.747 666.275 918.735C665.308 893.519 660.569 868.665 655.83 843.816L655.83 843.815C654.111 834.799 652.392 825.784 650.853 816.753C645.613 785.996 640.483 754.802 640.022 719.777C639.326 720.808 638.644 721.825 637.974 722.826C630.426 734.095 624.264 743.295 613.48 746.877C595.58 752.827 579.917 748.422 567.371 734.277C553.071 718.155 543.783 699.808 538.558 678.498C530.244 644.587 528.704 611.368 539.487 577.853C544.655 561.774 563.189 533.208 581.684 535.824ZM616.346 663.326C620.717 666.467 624.679 669.316 628.334 657.948C627.158 615.652 613.6 588.654 592.472 587.632C603.747 602.197 614.559 616.413 615.472 636.132C610.742 633.978 607.7 630.589 604.784 627.342C602.753 625.08 600.784 622.886 598.348 621.226C597.31 620.518 596.295 619.735 595.271 618.946C590.544 615.301 585.636 611.516 577.471 614.357C581.301 620.187 586.575 624.301 591.799 628.377C597.832 633.083 603.798 637.737 607.392 644.919C596.777 652.561 592.209 662.62 597.718 674.761C602.497 685.296 609.565 694 623.565 694.635C623.043 688.31 618.868 683.707 614.812 679.235C609.879 673.796 605.121 668.55 607.316 660.635C610.515 659.133 613.516 661.291 616.346 663.326Z" fill="black"/>
<path d="M1472.6 1632H261.411L270.043 1568.76C270.043 1568.76 192.255 1542.34 184.466 1527.04C176.678 1511.73 268.83 1313.02 281.468 1281.57C294.106 1250.12 358.107 1133.51 417.227 1107.65C456.948 1090.28 554.959 1032.37 592.165 1016.1C596.975 1014 608.961 996.074 616.589 983.012C624.216 969.95 632.323 996.534 658.644 954.578C665.3 943.967 693.317 961.586 709.257 971.941C722.911 980.812 746.044 1016.41 851.872 1009.71C995.469 1000.61 1015.05 934.27 1031.57 943.965C1055.61 958.071 1085.42 1000.49 1085.42 1000.49C1085.42 1000.49 1195.16 1069.53 1224.11 1092.12C1283.57 1138.52 1347.21 1173.98 1404.74 1343.73C1424.57 1402.27 1482.64 1503.89 1490.78 1516.95C1498.91 1530 1463.74 1552.98 1463.74 1552.98L1472.6 1632Z" fill="white"/>
<path d="M1241.47 1113.73C1211.34 1088.4 1181.41 1066.74 1147.71 1047.48C1145.39 1046.16 1142.96 1044.1 1140.35 1046.3C1136.57 1049.5 1137.75 1053.88 1138.77 1057.99C1144.92 1082.72 1139.41 1104.45 1123.43 1121.8C1113.48 1132.62 1100.84 1139.96 1087.35 1144.47C1078.09 1147.57 1074.81 1152.6 1077.65 1164.17C1083.01 1186.02 1089.34 1207.31 1088.8 1231.1C1088.14 1260.14 1075.96 1280.7 1059.3 1299.9C1036.24 1326.47 1005.55 1335.77 975.621 1346.72C944.125 1358.24 913.434 1372.24 885.407 1391.97C870.201 1402.68 862.466 1422.02 854.846 1439.98C844.522 1464.31 839.627 1490.52 836.175 1517.1C833.744 1535.82 842.172 1551.94 845.868 1569.12C850.883 1592.45 860.34 1613.49 876.221 1631.1C872.347 1631.98 868.455 1631.98 863.589 1631.98C833.648 1591.82 820.958 1545.64 827.679 1494.72C832.929 1454.95 846.326 1417.86 873.171 1389.49C889.245 1372.5 909.608 1362.69 929.467 1352.55C958.229 1337.86 989.558 1330.26 1017.99 1315.42C1046.92 1300.32 1069.21 1276.23 1073.61 1236.52C1075.99 1215.04 1072.17 1195.27 1066.96 1175.47C1061.99 1156.59 1066.53 1144.18 1083.47 1133.47C1092.88 1127.53 1103.18 1124.13 1111.77 1115.52C1121.08 1106.19 1127.73 1096.13 1129.09 1082.65C1131.9 1054.82 1127.12 1030.89 1106.86 1016.32C1095.16 1007.91 1090.98 1008.31 1081.29 1019.56C1077.45 1024.01 1074.08 1028.52 1067.86 1025.32C1066.21 1023.16 1067.55 1021.3 1068.41 1019.55C1071.18 1013.86 1079.07 1010.71 1076.64 1002.59C1073.41 991.793 1070.2 980.578 1061.16 973.625C1054.84 968.76 1048.19 967.243 1041.13 971.926C1037.89 974.073 1034.68 976.44 1031.18 977.858C1029.76 978.538 1028.15 978.548 1026.72 977.885C1025.29 977.222 1024.15 975.941 1023.57 974.329C1022.04 970.731 1024.16 969.026 1026.43 967.133C1029.99 964.167 1033.32 960.861 1037.32 957.168C1030.99 949.088 1025.25 951.526 1019.43 956.245C1009.13 964.587 999.494 974.343 988.399 981.009C957.228 999.742 923.743 1011.1 888.372 1012.65C854.537 1014.13 820.601 1015.91 786.76 1013.47C765.113 1011.91 745.237 1001.99 725.304 992.975C708.93 985.569 694.209 974.6 678.456 965.893C664.994 958.453 658 961.25 650.47 975.918C640.969 994.427 643.591 1009.05 659.073 1025.27C662.684 1029.05 670.439 1032.91 666.296 1038.79C661.395 1045.75 656.084 1037.34 652.185 1033.92C641.409 1024.49 632.145 1013.5 631.07 996.831C630.818 992.925 630.58 988.931 625.911 988.416C622.265 988.017 619.829 989.265 617.403 992.942C609.234 1005.33 609.382 1011.55 620.316 1029.62C622.915 1033.91 626.243 1037.58 622.622 1043.83C611.681 1038.98 607.76 1026.66 601.887 1016.57C595.303 1022.14 597.452 1027.52 599.034 1032.64C610.326 1069.09 632.302 1095.11 661.445 1114.39C675.112 1123.44 688.907 1132.38 704.106 1137.25C740.533 1148.93 776.444 1163.6 815.478 1160.59C841.388 1158.59 867.699 1163.64 893.212 1154.3C899.893 1151.85 902.375 1156.77 901.733 1163.45C899.204 1189.73 894.336 1215.09 880.499 1237.42C857.801 1274.04 825.277 1296.82 791.705 1317.98C765.895 1334.25 736.855 1343.34 712.703 1363.5C694.437 1378.75 678.139 1396.08 666.174 1417.83C643.527 1459.01 640.099 1503.6 649.901 1549.94C655.134 1574.68 669.73 1593.09 684.305 1611.3C689.602 1617.92 695.457 1623.97 701.234 1631.13C697.518 1631.98 693.625 1631.98 688.76 1631.98C663.927 1607.37 642.463 1580.92 635.42 1543.68C630.553 1517.95 631.34 1492.29 635.695 1466.51C643.475 1420.44 666.193 1384.82 697.823 1356.36C712.555 1343.21 728.821 1332.4 746.165 1324.23C789.358 1303.7 829.392 1277.59 861.707 1238.4C876.213 1221.13 884.678 1198.53 885.537 1174.78C860.102 1174.78 835.037 1174.78 809.972 1174.78C782.23 1174.78 755.723 1167.78 729.206 1158.96C704.562 1150.77 680.906 1140.63 658.774 1126.07C628.916 1106.43 605.152 1080.2 592.006 1043.56C588.804 1034.63 585.604 1033.41 578.68 1037.87C551.146 1055.58 520.853 1066.28 492.057 1080.77C442.791 1105.56 390.577 1125.09 354.983 1175.3C338.761 1198.15 323.689 1222.02 309.839 1246.77C281.421 1297.62 260.071 1352.59 235.959 1405.96C223.026 1434.59 209.714 1462.97 198.363 1492.47C189.348 1515.91 190.934 1519.67 213.072 1526.46C226.51 1530.59 239.443 1537.62 253.066 1540.01C289.297 1546.38 321.568 1564.75 354.768 1580.26C381.129 1592.58 407.494 1605.14 431.942 1621.94C436.768 1625.25 443.346 1624.08 446.954 1631.05C437.346 1631.93 427.696 1632.05 418.074 1631.4C372.774 1605.35 325.176 1591.68 279.329 1569.35C274.291 1592.31 268.603 1611.54 267.745 1631.98H255.096C252.346 1622.81 255.598 1614.38 257.219 1605.72C259.332 1594.44 258.434 1586.06 245.823 1583.61C225.335 1579.63 208.395 1566.39 191.177 1554.33C179.083 1545.86 175.287 1528.11 179.9 1507.28C185.411 1482.39 195.517 1459.69 205.397 1436.82C225.919 1389.3 247.384 1342.29 268.646 1295.23C294.407 1238.2 324.097 1183.26 366.287 1139.02C387.256 1117.03 411.502 1100.6 437.887 1087.11C460.744 1075.43 483.526 1063.29 506.899 1053.26C526.959 1044.65 545.964 1033.75 565.629 1024.37C580.202 1017.42 593.864 1009.61 601.617 992.119C607.741 978.301 617.059 967.527 633.11 971.992C637.319 973.162 639.071 970.405 641.242 967.096C657.206 942.736 669.239 940.166 693.045 955.775C699.583 960.062 735.528 980.011 745.987 985.265C769.811 997.257 795.645 1003.34 821.738 1003.1C848.115 1002.91 874.493 1000.54 900.844 998.632C931.871 996.386 960.001 982.994 986.931 966.998C996.657 961.221 1005.34 952.446 1014.74 945.405C1026 936.973 1038.17 938.518 1048.21 949.264C1052.11 953.277 1056.55 956.564 1061.36 959.001C1074.53 965.916 1078.91 983.274 1089.2 990.973C1099.58 998.731 1114.41 998.852 1123.75 1011.6C1130.08 1020.24 1140.19 1023.24 1148.71 1028.63C1397.5 1186.01 1347.26 1221.8 1445.37 1404.45C1462.52 1436.37 1474.91 1470.88 1491.54 1502.96C1491.73 1503.33 1491.85 1503.74 1492.07 1504.09C1508.36 1530.96 1505.22 1543.21 1478.1 1556.17C1470.99 1559.56 1467.31 1562.84 1469.1 1573.06C1472.37 1591.77 1473.8 1610.89 1475.83 1630.91C1471.76 1631.97 1467.87 1631.97 1462.67 1630.97C1458.5 1620.03 1459.05 1609.77 1458.96 1599.56C1458.8 1581.91 1453.21 1565.77 1448.63 1548.21C1438.38 1552.12 1428.64 1554.38 1420.15 1559.34C1393.22 1575.08 1365.18 1586.46 1335.22 1592.35C1320.09 1595.32 1313.54 1605.84 1313.54 1623.18C1313.69 1626.12 1313.99 1629.06 1314.45 1631.97C1309.38 1632.12 1304.3 1631.73 1299.3 1630.8C1296.7 1554.82 1471.35 1517.51 1471.35 1517.51C1471.35 1517.51 1439.2 1449.34 1416.14 1391.35C1389.42 1324.14 1373.7 1295.89 1358.61 1257.96C1335.38 1199.54 1244.93 1116.63 1241.47 1113.73Z" fill="black"/>
<path d="M701.33 1528.72C690.966 1498.69 693.71 1470.68 706.774 1443.6C708.567 1439.88 710.378 1436.17 712.07 1432.4C714.158 1427.74 717.272 1424.41 721.869 1426.78C726.258 1429.05 724.887 1433.36 723.623 1437.76C720.156 1449.82 714.219 1460.58 710.906 1472.87C703.072 1501.94 711.401 1525.72 726.959 1547.81C733.282 1556.79 741.772 1564.11 743 1577C724.179 1566.78 710.041 1551.5 701.33 1528.72Z" fill="black"/>
<path d="M1007.8 1077.94C1024.17 1055.82 1041.82 1044.33 1053 1049.05C1050.18 1053.96 1046.35 1058.07 1041.82 1061.02C1026.47 1070.86 1014.21 1084.69 1003.76 1100.31C988.549 1123.03 987.982 1146.6 1001.35 1170.94C1008.09 1183.3 1012.07 1197.27 1012.94 1211.68C1014.06 1228.26 1007.48 1240.22 993.054 1247C992.649 1246.34 991.787 1245.26 991.933 1245.06C1007.29 1223.11 1000.82 1200.63 993.522 1177.99C981.966 1142.17 985.196 1108.74 1007.8 1077.94Z" fill="black"/>
<path d="M654.962 299.775C686.676 271.046 721.433 250.369 761.115 235.261C796.146 221.923 830.944 218.696 867.244 218.836C907.769 218.992 941.744 237.446 979.584 250.72C1036.99 270.859 1155.73 376.778 1121.08 513.001C1116.5 531.01 1113.53 548.822 1108.29 565.833C1101.36 588.295 1105.07 609.109 1106.75 631.033C1110.54 680.726 1152.83 744.944 1158.32 794.233C1162.15 828.751 1164.48 862.843 1159.02 897.025C1154.57 924.852 1137.36 967.943 1129.14 994.45C1123.62 1012.26 1089.66 998.504 1074.77 1011.79C1069.48 1009.73 1068.26 1007.16 1067.61 1002.72C1065.01 984.987 1070.76 969.464 1077.95 953.821C1083.9 940.896 1085.46 926.412 1089.76 912.666C1080.47 929.671 1071.18 946.674 1061.88 963.676C1060.86 965.542 1059.78 967.384 1058.61 969.16C1048.69 984.249 1044.58 985.648 1028.46 978.341C1013.47 971.541 999.581 962.541 984.087 956.625C979.731 954.961 975.76 953.135 970.998 952.651C957.733 951.302 952.368 940.308 946.218 930.812C944.078 927.506 947.572 925.124 950.361 922.712C967.219 908.145 987.087 897.897 1006.43 887.953C1036.45 872.522 1051.15 846.384 1064.24 818.17C1077.36 789.886 1083.43 759.482 1088.22 728.981C1093.25 697.024 1088.89 664.873 1087.11 632.881C1085.91 611.251 1082.25 589.752 1090.5 568.651C1091.51 566.067 1091.28 562.62 1090.61 559.815C1083.32 529.256 1077.35 498.388 1074.53 467.155C1071.78 436.655 1030.69 316.555 958.202 364.473C936.748 378.654 928.126 395.799 911.619 426.74C893.68 460.362 867.533 485.452 834.931 504.465C817.359 514.713 799.331 524.95 779.703 529.303C756.189 534.519 732.877 541.455 708.573 543.133C691.795 544.291 677.717 552.502 665.382 563.247C640.918 584.557 645.476 607.932 665.923 635.68C689.902 668.22 710.993 702.834 717.098 742.299C722.262 775.676 723.469 810.462 711.412 844.473C704.425 864.182 694.5 882.034 686.13 900.832C675.189 925.402 677.882 950.339 688.303 975.585C656.648 995.396 623.387 990.048 589.141 984.985C590.786 994.475 583.493 994.369 576.349 994.016C548.41 992.635 520.232 992.729 493.87 981.124C492.01 980.305 489.059 979.262 487.87 980.101C482.545 983.859 460.162 997.464 424.995 943.501C410.874 921.829 407.441 897.414 408.295 872.817C409.119 849.168 412.444 825.432 416.723 802.111C427.44 743.711 455.163 693.284 492.823 648.105C518.387 617.435 536.373 582.886 541.858 543.547C545.14 520.01 546.991 496.462 553.058 473.255C565.208 426.775 583.903 383.97 613.958 345.917C626.612 329.88 638.997 313.938 654.962 299.775Z" fill="black"/>
<path d="M946.582 866.171C937.821 866.182 930.107 866.698 922.558 865.811C917.49 865.216 912.181 862.429 913.678 855.858C914.956 850.252 919.561 849.804 924.856 850.618C931.524 851.644 938.336 851.804 945.096 852.118C949.145 852.307 953.085 852.867 954.296 857.301C955.767 862.65 952.371 865.002 946.582 866.171Z" fill="black"/>
<path d="M970.733 821.326C979.257 828.453 987.633 828.875 997.265 822.604C1007.39 816.019 1010.17 806.946 1010.6 794.549C959.732 796.377 910.071 793.966 858.481 784.386C863.463 791.217 870.855 788.002 872.33 796.186C875.78 815.343 884.708 819.832 902.93 813.329C908.503 811.341 912.13 811.258 915.609 817.093C926.641 835.58 940.426 838.31 957.729 825.943C961.184 823.479 964.14 820.172 970.733 821.326Z" fill="white"/>
<path fill-rule="evenodd" clip-rule="evenodd" d="M997.885 782.497C994.137 782.794 990.285 783.1 986.411 782.608C975.991 783.627 966.215 782.474 956.619 781.342C951.284 780.713 946.005 780.091 940.701 779.851C913.609 778.633 886.554 776.327 859.537 773.887C858.901 773.83 858.257 773.762 857.613 773.694C852.382 773.144 847.083 772.587 844.637 777.42C841.561 783.5 844.574 790.018 849.803 794.34C856.513 799.986 862.134 806.81 866.392 814.475C873.442 826.689 885.103 831.475 898.782 829.075C904.785 828.023 908.473 829.799 912.35 833.54C929.842 850.424 951.041 847.766 965.15 836.666C969.01 833.63 972.522 832.067 976.643 834.391C989.835 841.829 1000.72 834.952 1011.05 828.42L1011.05 828.418C1026.15 818.875 1029.29 796.113 1017.2 786.132C1011.49 781.418 1004.87 781.943 997.885 782.497ZM997.265 822.604C987.633 828.875 979.257 828.453 970.733 821.326C965.094 820.339 962.115 822.616 959.21 824.837C958.718 825.213 958.229 825.587 957.729 825.943C940.426 838.31 926.641 835.58 915.609 817.093C912.13 811.258 908.503 811.341 902.93 813.329C884.708 819.832 875.78 815.343 872.33 796.186C871.511 791.643 868.87 790.613 865.829 789.427C863.391 788.476 860.698 787.425 858.481 784.386C910.071 793.966 959.732 796.377 1010.6 794.549C1010.17 806.946 1007.39 816.019 997.265 822.604Z" fill="black"/>
<path d="M972.459 711.036C977.529 695.365 966.48 684.736 962.076 672.512C953.52 648.769 945.87 625.105 947.089 599.474C947.306 594.906 946.389 588.774 953.077 588.936C958.214 589.062 960.977 594.11 961.177 598.948C962.666 634.448 975.602 666.571 990.105 698.238C992.838 704.204 992.214 709.323 988.984 715.091C980.513 730.218 966.653 735.136 950.794 735.623C942.077 735.891 935.861 731.096 932.621 720.395C946.624 718.56 961.965 725.186 972.459 711.036Z" fill="black"/>
<path fill-rule="evenodd" clip-rule="evenodd" d="M1060.2 572.801C1064.93 573.782 1069.43 573.783 1073.82 573.784C1078.57 573.786 1083.19 573.787 1087.82 575.028C1100.8 578.515 1105.62 587.343 1108.6 599.173C1113.69 619.366 1114.79 639.223 1108.73 659.492C1105.3 670.98 1101.65 677.878 1086.77 677.81C1059.22 677.684 1031.6 678.298 1004.03 679.064C969.32 680.028 961.16 665.715 956.292 632.954C953.979 617.392 949.192 611.254 934.96 611.734C923.454 612.122 916.428 620.029 916.612 634.514C916.804 649.614 910.231 661.914 901.423 672.843C892.361 684.09 879.821 682.755 867.717 681.467L867.717 681.467C865.381 681.219 863.061 680.972 860.785 680.817C847.909 679.945 835.064 678.618 822.219 677.292C812.26 676.263 802.3 675.234 792.324 674.417C779.771 673.386 770.483 666.457 769.304 653.766C768.88 649.183 767.718 644.826 766.561 640.493C765.536 636.651 764.516 632.827 764.02 628.883C763.337 623.452 760.701 620.438 755.92 618.583C717.614 603.749 679.312 588.904 641.012 574.049C634.906 571.69 630.474 567.324 624.764 561.697C624.344 561.284 623.918 560.864 623.483 560.437C637.183 557.689 648.136 562.21 658.235 567.112C689.535 582.304 722.181 593.744 755.241 604.245C762.121 606.43 764.608 602.114 766.918 597.459C767.823 595.636 768.514 593.698 769.203 591.762L769.203 591.762L769.203 591.761C770.083 589.291 770.96 586.827 772.278 584.616C782.644 567.226 796.266 562.552 819.471 565.755C824.275 566.418 829.073 567.148 833.871 567.877C849.631 570.274 865.403 572.672 881.471 572.727C905.806 572.813 911.66 577.448 918.959 601.145C919.867 600.988 920.776 600.825 921.688 600.662L921.691 600.662C932.102 598.801 942.799 596.89 953.392 601.959C958.147 604.232 959.571 599.513 960.669 595.577C965.817 577.115 971.632 572.6 990.008 572.616C1013.03 572.636 1036.05 572.707 1060.2 572.801ZM799.846 575.286C794.132 575.23 788.995 575.986 785.769 581.786C772.869 604.978 770.129 629.064 778.828 654.286C780.29 658.526 782.286 661.771 787.568 662.193C818.046 664.625 848.513 667.192 878.968 669.893C885.524 670.468 889.758 667.82 894.287 663.002C905.317 651.269 905.861 636.775 906.39 622.685L906.39 622.682C906.474 620.453 906.557 618.234 906.681 616.037C908.174 589.688 905.898 587.885 877.595 583.381C859.721 580.535 841.64 578.976 822.905 577.361C815.336 576.708 807.66 576.046 799.848 575.286H799.846ZM971.487 653.373C967.627 644.023 963.701 634.512 965.483 623.871H965.485C966.714 619.574 967.532 615.385 968.324 611.333C969.781 603.873 971.148 596.873 974.822 590.501C978.138 584.749 982.34 582.151 989.148 581.971C1020.64 581.139 1051.95 583.588 1083.27 586.295C1089.75 586.856 1094.02 589.847 1095.54 595.565C1101.02 616.215 1105.22 636.898 1097.63 658.189C1095.45 664.294 1093.03 667.439 1086.2 667.372C1083.27 667.344 1080.34 667.313 1077.4 667.282C1047.24 666.968 1017.08 666.653 986.919 668.508C979.173 668.984 975.01 661.99 972.473 655.771C972.148 654.973 971.818 654.173 971.487 653.373Z" fill="black"/>
<path d="M827.482 552.562C837.911 548.017 847.238 541.279 854.83 532.807C857.549 529.76 860.906 527.069 864.661 527.723C871.427 528.902 880.888 526.897 883.461 535.264C885.63 542.308 878.284 545.764 873.179 549.664C859.365 560.208 845 568.671 826.597 566.435C821.963 565.871 816.911 566.649 815.506 560.209C817.182 554.698 822.896 555.345 827.482 552.562Z" fill="black"/>
<path d="M1025.42 530.056C1033.89 528.349 1038 534.131 1042.53 538.228C1050.65 545.565 1057.24 554.618 1068.51 557.972C1071.81 558.955 1074.22 561.972 1072.46 566.057C1070.98 569.503 1068.42 571.699 1064.41 570.622C1050.19 566.793 1035.33 564.746 1023.91 553.816C1013.81 544.15 1013.68 539.796 1025.42 530.056Z" fill="black"/>
</svg>
